%TF.GenerationSoftware,KiCad,Pcbnew,10.0.1*%
%TF.CreationDate,2026-04-26T02:31:30+02:00*%
%TF.ProjectId,fancontroller,66616e63-6f6e-4747-926f-6c6c65722e6b,rev?*%
%TF.SameCoordinates,PX3dfd240PY7bfa480*%
%TF.FileFunction,Soldermask,Bot*%
%TF.FilePolarity,Negative*%
%FSLAX46Y46*%
G04 Gerber Fmt 4.6, Leading zero omitted, Abs format (unit mm)*
G04 Created by KiCad (PCBNEW 10.0.1) date 2026-04-26 02:31:30*
%MOMM*%
%LPD*%
G01*
G04 APERTURE LIST*
G04 Aperture macros list*
%AMRoundRect*
0 Rectangle with rounded corners*
0 $1 Rounding radius*
0 $2 $3 $4 $5 $6 $7 $8 $9 X,Y pos of 4 corners*
0 Add a 4 corners polygon primitive as box body*
4,1,4,$2,$3,$4,$5,$6,$7,$8,$9,$2,$3,0*
0 Add four circle primitives for the rounded corners*
1,1,$1+$1,$2,$3*
1,1,$1+$1,$4,$5*
1,1,$1+$1,$6,$7*
1,1,$1+$1,$8,$9*
0 Add four rect primitives between the rounded corners*
20,1,$1+$1,$2,$3,$4,$5,0*
20,1,$1+$1,$4,$5,$6,$7,0*
20,1,$1+$1,$6,$7,$8,$9,0*
20,1,$1+$1,$8,$9,$2,$3,0*%
G04 Aperture macros list end*
%ADD10R,1.500000X1.500000*%
%ADD11C,1.500000*%
%ADD12R,1.700000X1.700000*%
%ADD13C,1.700000*%
%ADD14C,1.100000*%
%ADD15R,1.730000X2.030000*%
%ADD16O,1.730000X2.030000*%
%ADD17R,2.000000X1.905000*%
%ADD18O,2.000000X1.905000*%
%ADD19RoundRect,0.250000X-0.750000X-0.750000X0.750000X-0.750000X0.750000X0.750000X-0.750000X0.750000X0*%
%ADD20C,2.000000*%
%ADD21RoundRect,0.216535X-0.883465X1.283465X-0.883465X-1.283465X0.883465X-1.283465X0.883465X1.283465X0*%
%ADD22R,1.600000X1.600000*%
%ADD23C,1.600000*%
%ADD24RoundRect,0.249999X-0.850001X-0.850001X0.850001X-0.850001X0.850001X0.850001X-0.850001X0.850001X0*%
%ADD25C,2.200000*%
%ADD26R,3.300000X6.600000*%
%ADD27O,3.300000X6.600000*%
%ADD28C,0.800000*%
%ADD29C,6.400000*%
%ADD30R,1.905000X2.000000*%
%ADD31O,1.905000X2.000000*%
G04 APERTURE END LIST*
D10*
%TO.C,Q13*%
X88010000Y45560000D03*
D11*
X90550000Y45560000D03*
X93090000Y45560000D03*
%TD*%
D12*
%TO.C,J30*%
X21930000Y7180000D03*
D13*
X21930000Y9720000D03*
%TD*%
D10*
%TO.C,Q9*%
X45420000Y45490000D03*
D11*
X47960000Y45490000D03*
X50500000Y45490000D03*
%TD*%
D14*
%TO.C,J6*%
X47950000Y56720000D03*
D15*
X53030000Y58880000D03*
D16*
X50490000Y58880000D03*
X47950000Y58880000D03*
X45410000Y58880000D03*
%TD*%
D12*
%TO.C,J31*%
X75530000Y34050000D03*
D13*
X75530000Y31510000D03*
X75530000Y28970000D03*
X75530000Y26430000D03*
%TD*%
D17*
%TO.C,Q10*%
X82000000Y54940000D03*
D18*
X82000000Y57480000D03*
X82000000Y60020000D03*
%TD*%
D19*
%TO.C,C3*%
X91200000Y103290000D03*
D20*
X96200000Y103290000D03*
%TD*%
D12*
%TO.C,J23*%
X160473399Y4896742D03*
D13*
X163013399Y4896742D03*
X165553399Y4896742D03*
X168093399Y4896742D03*
X170633399Y4896742D03*
%TD*%
D17*
%TO.C,Q18*%
X165950000Y54860000D03*
D18*
X165950000Y57400000D03*
X165950000Y59940000D03*
%TD*%
D12*
%TO.C,J32*%
X80750000Y28950000D03*
D13*
X80750000Y31490000D03*
X80750000Y34030000D03*
%TD*%
D10*
%TO.C,Q17*%
X129450000Y45470000D03*
D11*
X131990000Y45470000D03*
X134530000Y45470000D03*
%TD*%
D21*
%TO.C,F7*%
X136290000Y90830000D03*
X132890000Y90830000D03*
X136290000Y77330000D03*
X132890000Y77330000D03*
%TD*%
D17*
%TO.C,Q6*%
X40040000Y54950000D03*
D18*
X40040000Y57490000D03*
X40040000Y60030000D03*
%TD*%
D22*
%TO.C,U1*%
X59000000Y34370000D03*
D23*
X56460000Y34370000D03*
X53920000Y34370000D03*
X51380000Y34370000D03*
X48840000Y34370000D03*
X46300000Y34370000D03*
X43760000Y34370000D03*
X41220000Y34370000D03*
X38680000Y34370000D03*
D22*
X59000000Y31830000D03*
D23*
X56460000Y31830000D03*
X53920000Y31830000D03*
X51380000Y31830000D03*
X48840000Y31830000D03*
X46300000Y31830000D03*
X43760000Y31830000D03*
X41220000Y31830000D03*
X38680000Y31830000D03*
D22*
X59000000Y8970000D03*
D23*
X56460000Y8970000D03*
X53920000Y8970000D03*
X51380000Y8970000D03*
X48840000Y8970000D03*
X46300000Y8970000D03*
X43760000Y8970000D03*
X41220000Y8970000D03*
X38680000Y8970000D03*
D22*
X59000000Y6430000D03*
D23*
X56460000Y6430000D03*
X53920000Y6430000D03*
X51380000Y6430000D03*
X48840000Y6430000D03*
X46300000Y6430000D03*
X43760000Y6430000D03*
X41220000Y6430000D03*
X38680000Y6430000D03*
%TD*%
D24*
%TO.C,J18*%
X68070000Y8490000D03*
D25*
X70610000Y8490000D03*
X73150000Y8490000D03*
X75690000Y8490000D03*
X78230000Y8490000D03*
X80770000Y8490000D03*
%TD*%
D14*
%TO.C,J9*%
X111000000Y56860000D03*
D15*
X116080000Y59020000D03*
D16*
X113540000Y59020000D03*
X111000000Y59020000D03*
X108460000Y59020000D03*
%TD*%
D10*
%TO.C,Q11*%
X67040000Y45520000D03*
D11*
X69580000Y45520000D03*
X72120000Y45520000D03*
%TD*%
D26*
%TO.C,J2*%
X118200000Y100580000D03*
D27*
X108200000Y100580000D03*
%TD*%
D12*
%TO.C,J14*%
X12090000Y3350000D03*
D13*
X14630000Y3350000D03*
X17170000Y3350000D03*
X19710000Y3350000D03*
%TD*%
D17*
%TO.C,Q4*%
X19010000Y54860000D03*
D18*
X19010000Y57400000D03*
X19010000Y59940000D03*
%TD*%
D12*
%TO.C,J3*%
X181940000Y24170000D03*
D13*
X181940000Y21630000D03*
X181940000Y19090000D03*
X181940000Y16550000D03*
X181940000Y14010000D03*
X181940000Y11470000D03*
%TD*%
D10*
%TO.C,U2*%
X23280000Y29680000D03*
D11*
X23280000Y32220000D03*
X23280000Y34760000D03*
%TD*%
D14*
%TO.C,J7*%
X69580000Y56830000D03*
D15*
X74660000Y58990000D03*
D16*
X72120000Y58990000D03*
X69580000Y58990000D03*
X67040000Y58990000D03*
%TD*%
D21*
%TO.C,F3*%
X52230000Y90870000D03*
X48830000Y90870000D03*
X52230000Y77370000D03*
X48830000Y77370000D03*
%TD*%
D28*
%TO.C,MH4*%
X182600000Y5000000D03*
X183302944Y6697056D03*
X183302944Y3302944D03*
X185000000Y7400000D03*
D29*
X185000000Y5000000D03*
D28*
X185000000Y2600000D03*
X186697056Y6697056D03*
X186697056Y3302944D03*
X187400000Y5000000D03*
%TD*%
D10*
%TO.C,Q5*%
X4680000Y45540000D03*
D11*
X7220000Y45540000D03*
X9760000Y45540000D03*
%TD*%
D28*
%TO.C,MH2*%
X182600000Y105000000D03*
X183302944Y106697056D03*
X183302944Y103302944D03*
X185000000Y107400000D03*
D29*
X185000000Y105000000D03*
D28*
X185000000Y102600000D03*
X186697056Y106697056D03*
X186697056Y103302944D03*
X187400000Y105000000D03*
%TD*%
D10*
%TO.C,Q19*%
X150230000Y45230000D03*
D11*
X152770000Y45230000D03*
X155310000Y45230000D03*
%TD*%
D12*
%TO.C,J34*%
X92485000Y18535000D03*
D13*
X95025000Y18535000D03*
X97565000Y18535000D03*
X100105000Y18535000D03*
X102645000Y18535000D03*
X105185000Y18535000D03*
X107725000Y18535000D03*
X110265000Y18535000D03*
%TD*%
D10*
%TO.C,Q21*%
X171430000Y45140000D03*
D11*
X173970000Y45140000D03*
X176510000Y45140000D03*
%TD*%
D28*
%TO.C,MH3*%
X2600000Y5000000D03*
X3302944Y6697056D03*
X3302944Y3302944D03*
X5000000Y7400000D03*
D29*
X5000000Y5000000D03*
D28*
X5000000Y2600000D03*
X6697056Y6697056D03*
X6697056Y3302944D03*
X7400000Y5000000D03*
%TD*%
D14*
%TO.C,J11*%
X152860000Y56800000D03*
D15*
X157940000Y58960000D03*
D16*
X155400000Y58960000D03*
X152860000Y58960000D03*
X150320000Y58960000D03*
%TD*%
D26*
%TO.C,J1*%
X76100000Y100600000D03*
D27*
X66100000Y100600000D03*
%TD*%
D21*
%TO.C,F9*%
X178360000Y91490000D03*
X174960000Y91490000D03*
X178360000Y77990000D03*
X174960000Y77990000D03*
%TD*%
D17*
%TO.C,Q16*%
X144990000Y54870000D03*
D18*
X144990000Y57410000D03*
X144990000Y59950000D03*
%TD*%
D17*
%TO.C,Q14*%
X123970000Y54880000D03*
D18*
X123970000Y57420000D03*
X123970000Y59960000D03*
%TD*%
D17*
%TO.C,Q20*%
X186940000Y54830000D03*
D18*
X186940000Y57370000D03*
X186940000Y59910000D03*
%TD*%
D21*
%TO.C,F1*%
X11510000Y91040000D03*
X8110000Y91040000D03*
X11510000Y77540000D03*
X8110000Y77540000D03*
%TD*%
D14*
%TO.C,J13*%
X173930000Y56730000D03*
D15*
X179010000Y58890000D03*
D16*
X176470000Y58890000D03*
X173930000Y58890000D03*
X171390000Y58890000D03*
%TD*%
D28*
%TO.C,MH1*%
X2600000Y105000000D03*
X3302944Y106697056D03*
X3302944Y103302944D03*
X5000000Y107400000D03*
D29*
X5000000Y105000000D03*
D28*
X5000000Y102600000D03*
X6697056Y106697056D03*
X6697056Y103302944D03*
X7400000Y105000000D03*
%TD*%
D14*
%TO.C,J8*%
X90450000Y56790000D03*
D15*
X95530000Y58950000D03*
D16*
X92990000Y58950000D03*
X90450000Y58950000D03*
X87910000Y58950000D03*
%TD*%
D10*
%TO.C,Q15*%
X108490000Y45500000D03*
D11*
X111030000Y45500000D03*
X113570000Y45500000D03*
%TD*%
D21*
%TO.C,F8*%
X157030000Y91090000D03*
X153630000Y91090000D03*
X157030000Y77590000D03*
X153630000Y77590000D03*
%TD*%
D14*
%TO.C,J10*%
X131940000Y56730000D03*
D15*
X137020000Y58890000D03*
D16*
X134480000Y58890000D03*
X131940000Y58890000D03*
X129400000Y58890000D03*
%TD*%
D14*
%TO.C,J5*%
X27480000Y57180000D03*
D15*
X32560000Y59340000D03*
D16*
X30020000Y59340000D03*
X27480000Y59340000D03*
X24940000Y59340000D03*
%TD*%
D10*
%TO.C,Q7*%
X24960000Y45590000D03*
D11*
X27500000Y45590000D03*
X30040000Y45590000D03*
%TD*%
D21*
%TO.C,F6*%
X115100000Y88650000D03*
X111700000Y88650000D03*
X115100000Y75150000D03*
X111700000Y75150000D03*
%TD*%
%TO.C,F5*%
X94510000Y90850000D03*
X91110000Y90850000D03*
X94510000Y77350000D03*
X91110000Y77350000D03*
%TD*%
D10*
%TO.C,Q1*%
X12740000Y30990000D03*
D11*
X12740000Y28450000D03*
X12740000Y25910000D03*
%TD*%
D12*
%TO.C,J15*%
X147880000Y29810000D03*
D13*
X147880000Y27270000D03*
X147880000Y24730000D03*
X147880000Y22190000D03*
%TD*%
D14*
%TO.C,J4*%
X7270000Y56855000D03*
D15*
X12350000Y59015000D03*
D16*
X9810000Y59015000D03*
X7270000Y59015000D03*
X4730000Y59015000D03*
%TD*%
D21*
%TO.C,F2*%
X31570000Y90800000D03*
X28170000Y90800000D03*
X31570000Y77300000D03*
X28170000Y77300000D03*
%TD*%
D30*
%TO.C,J24*%
X185860000Y35850000D03*
D31*
X183320000Y35850000D03*
X180780000Y35850000D03*
%TD*%
D21*
%TO.C,F4*%
X73770000Y88550000D03*
X70370000Y88550000D03*
X73770000Y75050000D03*
X70370000Y75050000D03*
%TD*%
D24*
%TO.C,J12*%
X92760000Y5355000D03*
D25*
X95300000Y5355000D03*
X97840000Y5355000D03*
X100380000Y5355000D03*
%TD*%
D17*
%TO.C,Q8*%
X61060000Y54970000D03*
D18*
X61060000Y57510000D03*
X61060000Y60050000D03*
%TD*%
D17*
%TO.C,Q12*%
X102890000Y54890000D03*
D18*
X102890000Y57430000D03*
X102890000Y59970000D03*
%TD*%
D17*
%TO.C,J16*%
X4090000Y18500000D03*
D18*
X4090000Y21040000D03*
X4090000Y23580000D03*
%TD*%
M02*
