%TF.GenerationSoftware,KiCad,Pcbnew,10.0.1*%
%TF.CreationDate,2026-04-21T13:19:41+02:00*%
%TF.ProjectId,fancontroller,66616e63-6f6e-4747-926f-6c6c65722e6b,rev?*%
%TF.SameCoordinates,PX3dfd240PY7bfa480*%
%TF.FileFunction,Paste,Top*%
%TF.FilePolarity,Positive*%
%FSLAX46Y46*%
G04 Gerber Fmt 4.6, Leading zero omitted, Abs format (unit mm)*
G04 Created by KiCad (PCBNEW 10.0.1) date 2026-04-21 13:19:41*
%MOMM*%
%LPD*%
G01*
G04 APERTURE LIST*
G04 Aperture macros list*
%AMRoundRect*
0 Rectangle with rounded corners*
0 $1 Rounding radius*
0 $2 $3 $4 $5 $6 $7 $8 $9 X,Y pos of 4 corners*
0 Add a 4 corners polygon primitive as box body*
4,1,4,$2,$3,$4,$5,$6,$7,$8,$9,$2,$3,0*
0 Add four circle primitives for the rounded corners*
1,1,$1+$1,$2,$3*
1,1,$1+$1,$4,$5*
1,1,$1+$1,$6,$7*
1,1,$1+$1,$8,$9*
0 Add four rect primitives between the rounded corners*
20,1,$1+$1,$2,$3,$4,$5,0*
20,1,$1+$1,$4,$5,$6,$7,0*
20,1,$1+$1,$6,$7,$8,$9,0*
20,1,$1+$1,$8,$9,$2,$3,0*%
G04 Aperture macros list end*
%ADD10RoundRect,0.250000X0.650000X-1.000000X0.650000X1.000000X-0.650000X1.000000X-0.650000X-1.000000X0*%
%ADD11RoundRect,0.250000X0.350000X0.450000X-0.350000X0.450000X-0.350000X-0.450000X0.350000X-0.450000X0*%
%ADD12RoundRect,0.250000X-0.450000X0.350000X-0.450000X-0.350000X0.450000X-0.350000X0.450000X0.350000X0*%
%ADD13RoundRect,0.250000X-1.000000X-0.650000X1.000000X-0.650000X1.000000X0.650000X-1.000000X0.650000X0*%
%ADD14RoundRect,0.250000X0.337500X0.475000X-0.337500X0.475000X-0.337500X-0.475000X0.337500X-0.475000X0*%
%ADD15RoundRect,0.250000X0.450000X-0.350000X0.450000X0.350000X-0.450000X0.350000X-0.450000X-0.350000X0*%
%ADD16RoundRect,0.250000X-0.337500X-0.475000X0.337500X-0.475000X0.337500X0.475000X-0.337500X0.475000X0*%
%ADD17RoundRect,0.250000X-0.475000X0.337500X-0.475000X-0.337500X0.475000X-0.337500X0.475000X0.337500X0*%
%ADD18RoundRect,0.250000X0.475000X-0.337500X0.475000X0.337500X-0.475000X0.337500X-0.475000X-0.337500X0*%
G04 APERTURE END LIST*
D10*
%TO.C,D20*%
X30070000Y70040000D03*
X30070000Y66040000D03*
%TD*%
D11*
%TO.C,R31*%
X186010000Y50000000D03*
X188010000Y50000000D03*
%TD*%
D12*
%TO.C,R32*%
X172680000Y40010000D03*
X172680000Y38010000D03*
%TD*%
%TO.C,R30*%
X184020000Y47960000D03*
X184020000Y45960000D03*
%TD*%
%TO.C,R29*%
X151450000Y40010000D03*
X151450000Y38010000D03*
%TD*%
D11*
%TO.C,R28*%
X167950000Y49930000D03*
X165950000Y49930000D03*
%TD*%
D12*
%TO.C,R27*%
X162970000Y47860000D03*
X162970000Y45860000D03*
%TD*%
%TO.C,R26*%
X130690000Y39960000D03*
X130690000Y37960000D03*
%TD*%
D11*
%TO.C,R25*%
X146660000Y50090000D03*
X144660000Y50090000D03*
%TD*%
D12*
%TO.C,R24*%
X141970000Y47980000D03*
X141970000Y45980000D03*
%TD*%
%TO.C,R23*%
X109710000Y39960000D03*
X109710000Y37960000D03*
%TD*%
D11*
%TO.C,R22*%
X125940000Y50040000D03*
X123940000Y50040000D03*
%TD*%
D12*
%TO.C,R21*%
X120940000Y47960000D03*
X120940000Y45960000D03*
%TD*%
%TO.C,R20*%
X89230000Y39880000D03*
X89230000Y37880000D03*
%TD*%
D11*
%TO.C,R19*%
X104910000Y50030000D03*
X102910000Y50030000D03*
%TD*%
D12*
%TO.C,R18*%
X100000000Y48080000D03*
X100000000Y46080000D03*
%TD*%
%TO.C,R17*%
X68270000Y40030000D03*
X68270000Y38030000D03*
%TD*%
D11*
%TO.C,R16*%
X83990000Y49960000D03*
X81990000Y49960000D03*
%TD*%
D12*
%TO.C,R15*%
X78960000Y47840000D03*
X78960000Y45840000D03*
%TD*%
%TO.C,R14*%
X46690000Y40140000D03*
X46690000Y38140000D03*
%TD*%
D11*
%TO.C,R13*%
X62910000Y49950000D03*
X60910000Y49950000D03*
%TD*%
D12*
%TO.C,R12*%
X58000000Y47940000D03*
X58000000Y45940000D03*
%TD*%
%TO.C,R11*%
X26270000Y40030000D03*
X26270000Y38030000D03*
%TD*%
D11*
%TO.C,R10*%
X42010000Y49990000D03*
X40010000Y49990000D03*
%TD*%
D12*
%TO.C,R9*%
X36950000Y48210000D03*
X36950000Y46210000D03*
%TD*%
%TO.C,R8*%
X6030000Y40020000D03*
X6030000Y38020000D03*
%TD*%
D11*
%TO.C,R7*%
X20960000Y49970000D03*
X18960000Y49970000D03*
%TD*%
D12*
%TO.C,R5*%
X15990000Y48050000D03*
X15990000Y46050000D03*
%TD*%
D10*
%TO.C,D26*%
X155540000Y66020000D03*
X155540000Y70020000D03*
%TD*%
%TO.C,D25*%
X134500000Y66000000D03*
X134500000Y70000000D03*
%TD*%
%TO.C,D24*%
X113500000Y66100000D03*
X113500000Y70100000D03*
%TD*%
%TO.C,D23*%
X93020000Y66070000D03*
X93020000Y70070000D03*
%TD*%
%TO.C,D22*%
X72160000Y66390000D03*
X72160000Y70390000D03*
%TD*%
%TO.C,D21*%
X50540000Y66112500D03*
X50540000Y70112500D03*
%TD*%
%TO.C,D19*%
X176540000Y66160000D03*
X176540000Y70160000D03*
%TD*%
%TO.C,D11*%
X9840000Y65870000D03*
X9840000Y69870000D03*
%TD*%
D13*
%TO.C,D10*%
X176070000Y52100000D03*
X180070000Y52100000D03*
%TD*%
%TO.C,D9*%
X154830000Y51790000D03*
X158830000Y51790000D03*
%TD*%
%TO.C,D8*%
X133960000Y51980000D03*
X137960000Y51980000D03*
%TD*%
%TO.C,D7*%
X112882500Y51980000D03*
X116882500Y51980000D03*
%TD*%
%TO.C,D6*%
X92640000Y52130000D03*
X96640000Y52130000D03*
%TD*%
%TO.C,D5*%
X71602500Y51920000D03*
X75602500Y51920000D03*
%TD*%
%TO.C,D4*%
X50060000Y52080000D03*
X54060000Y52080000D03*
%TD*%
%TO.C,D3*%
X29640000Y52080000D03*
X33640000Y52080000D03*
%TD*%
%TO.C,D2*%
X9270000Y52015000D03*
X13270000Y52015000D03*
%TD*%
D12*
%TO.C,R6*%
X26460000Y34800000D03*
X26460000Y32800000D03*
%TD*%
%TO.C,R34*%
X23725000Y6300000D03*
X23725000Y4300000D03*
%TD*%
%TO.C,R3*%
X15600000Y25900000D03*
X15600000Y23900000D03*
%TD*%
%TO.C,R33*%
X26300000Y6300000D03*
X26300000Y4300000D03*
%TD*%
D14*
%TO.C,C10*%
X6130000Y26370000D03*
X4055000Y26370000D03*
%TD*%
D15*
%TO.C,R40*%
X77240000Y21830000D03*
X77240000Y23830000D03*
%TD*%
D16*
%TO.C,C5*%
X76200000Y17380000D03*
X78275000Y17380000D03*
%TD*%
D12*
%TO.C,R43*%
X76252500Y15486250D03*
X76252500Y13486250D03*
%TD*%
D15*
%TO.C,R39*%
X82530000Y21790000D03*
X82530000Y23790000D03*
%TD*%
D14*
%TO.C,C7*%
X84092500Y17312500D03*
X82017500Y17312500D03*
%TD*%
D12*
%TO.C,R44*%
X71615000Y15065000D03*
X71615000Y13065000D03*
%TD*%
%TO.C,R42*%
X82110000Y15392500D03*
X82110000Y13392500D03*
%TD*%
D17*
%TO.C,C12*%
X6950000Y20607500D03*
X6950000Y18532500D03*
%TD*%
D18*
%TO.C,C2*%
X81000000Y102862500D03*
X81000000Y104937500D03*
%TD*%
D15*
%TO.C,R41*%
X71340000Y21810000D03*
X71340000Y23810000D03*
%TD*%
%TO.C,R4*%
X10260000Y21410000D03*
X10260000Y23410000D03*
%TD*%
D18*
%TO.C,C6*%
X69190000Y12965000D03*
X69190000Y15040000D03*
%TD*%
M02*
