M48
; DRILL file KiCad 10.0.1 date 2026-04-22T21:25:00
; FORMAT={-:-/ absolute / metric / decimal}
; #@! TF.CreationDate,2026-04-22T21:25:00+02:00
; #@! TF.GenerationSoftware,Kicad,Pcbnew,10.0.1
; #@! TF.FileFunction,Plated,1,2,PTH
FMAT,2
METRIC
; #@! TA.AperFunction,Plated,PTH,ViaDrill
T1C0.300
; Post-machining
; #@! TA.AperFunction,Plated,PTH,ComponentDrill
T2C0.500
; #@! TA.AperFunction,Plated,PTH,ComponentDrill
T3C0.750
; #@! TA.AperFunction,Plated,PTH,ComponentDrill
T4C0.800
; #@! TA.AperFunction,Plated,PTH,ComponentDrill
T5C0.900
; #@! TA.AperFunction,Plated,PTH,ComponentDrill
T6C1.000
; #@! TA.AperFunction,Plated,PTH,ComponentDrill
T7C1.020
; #@! TA.AperFunction,Plated,PTH,ComponentDrill
T8C1.100
; #@! TA.AperFunction,Plated,PTH,ComponentDrill
T9C1.300
; #@! TA.AperFunction,Plated,PTH,ComponentDrill
T10C3.200
%
G90
G05
T1
X2.502Y12.41
X2.74Y20.74
X2.86Y21.68
X3.702Y10.88
X3.852Y13.48
X5.33Y21.68
X5.44Y20.71
X6.708Y24.975
X6.828Y27.615
X7.06Y21.61
X7.39Y46.79
X7.43Y44.26
X7.758Y26.325
X8.14Y20.59
X8.16Y29.51
X8.3Y32.0
X8.32Y45.68
X9.36Y30.57
X9.43Y9.14
X10.4Y34.55
X11.52Y28.3
X12.0Y16.04
X12.76Y27.46
X13.06Y18.54
X13.3Y10.84
X13.96Y28.17
X14.99Y34.6
X15.11Y14.98
X16.92Y11.25
X18.52Y61.36
X19.34Y61.36
X19.96Y61.03
X20.35Y60.41
X20.36Y59.64
X21.04Y48.79
X21.07Y51.18
X22.02Y50.02
X22.36Y31.71
X23.3Y6.97
X23.35Y2.38
X23.36Y30.76
X23.66Y10.29
X23.9Y26.27
X24.25Y42.0
X24.56Y31.56
X24.61Y3.82
X24.62Y9.69
X24.63Y5.66
X27.69Y44.26
X27.73Y46.83
X28.25Y42.0
X28.59Y45.6
X29.19Y2.45
X29.4Y10.66
X29.45Y6.97
X39.65Y61.4
X39.74Y39.25
X39.83Y24.52
X40.47Y61.4
X41.09Y61.07
X41.25Y29.175
X41.48Y60.45
X41.49Y59.68
X42.02Y51.21
X42.04Y3.61
X42.07Y48.76
X42.72Y9.6
X42.99Y23.49
X43.18Y50.01
X43.8Y10.2
X44.28Y3.47
X44.5Y42.0
X44.7Y9.85
X47.58Y30.2
X48.05Y44.22
X48.11Y46.78
X48.9Y42.0
X49.0Y45.51
X50.12Y38.14
X55.2Y29.825
X55.26Y35.09
X56.975Y29.85
X57.0Y35.7
X57.63Y34.87
X59.05Y16.58
X59.1Y35.65
X60.25Y7.0
X60.27Y6.2
X60.31Y34.39
X61.37Y18.48
X61.44Y61.42
X62.06Y61.09
X62.45Y60.47
X62.46Y59.7
X62.465Y19.91
X62.78Y9.45
X63.02Y51.23
X63.03Y48.75
X64.13Y50.09
X66.0Y42.0
X66.415Y8.685
X67.272Y21.797
X67.79Y10.06
; Post-machining back countersink angle 82deg
X68.1Y19.91
; Post-machining back countersink angle 82deg
X68.16Y18.48
X69.615Y9.76
X69.71Y44.25
X69.89Y46.73
X70.5Y42.0
X70.55Y45.5
X71.645Y9.65
X73.01Y18.48
X73.655Y9.98
X74.44Y39.66
X79.3Y13.9
X79.68Y12.4
; Post-machining back countersink angle 82deg
X79.78Y19.91
X81.6Y61.4
X81.6Y25.39
X82.42Y61.4
X83.04Y61.07
X83.43Y60.45
X83.44Y59.68
X83.68Y8.66
X84.07Y51.23
X84.11Y48.78
X84.45Y39.52
X85.05Y26.08
X85.17Y50.06
X85.49Y13.76
X85.55Y38.14
X86.99Y1.15
X87.0Y42.0
X90.5Y4.2
X90.6Y44.29
X90.81Y46.81
X91.56Y45.6
X91.8Y42.0
X92.17Y101.97
X92.38Y104.82
X92.96Y23.67
X93.03Y102.41
X93.2Y104.34
X93.51Y103.17
X94.08Y19.6
X94.19Y17.44
X94.88Y39.84
X95.64Y25.87
X96.04Y17.54
X97.57Y22.91
X98.47Y12.66
X99.7Y23.81
X100.17Y6.875
X100.74Y10.73
X101.17Y6.675
X101.76Y40.15
X101.87Y5.475
X102.62Y61.4
X102.72Y30.92
X103.44Y61.4
X103.67Y27.33
X104.06Y61.07
X104.2Y6.91
X104.45Y60.45
X104.46Y59.68
X105.09Y51.28
X105.1Y48.78
X105.4Y14.44
X106.15Y50.06
X106.2Y103.5
X106.24Y37.96
X106.88Y101.39
X107.5Y42.0
X107.89Y9.08
X108.22Y104.8
X108.84Y7.48
X108.97Y101.38
X109.15Y8.15
X109.29Y6.05
X109.69Y27.21
X109.76Y103.05
X109.93Y12.55
X110.84Y5.7
X111.1Y44.21
X111.21Y46.78
X111.27Y103.63
X112.0Y101.21
X112.06Y45.57
X112.2Y42.0
X112.47Y1.78
X113.14Y24.59
X113.5Y104.7
X114.33Y101.28
X114.74Y103.23
X116.23Y26.93
X117.3Y40.36
X117.4Y37.33
X118.3Y7.29
X118.63Y8.15
X118.73Y6.03
X120.26Y5.65
X121.89Y1.8
X122.73Y45.74
X123.6Y61.39
X124.42Y61.39
X124.49Y40.15
X125.04Y61.06
X125.32Y37.97
X125.43Y60.44
X125.44Y59.67
X126.06Y48.82
X126.1Y51.29
X126.15Y23.1
X127.12Y50.06
X127.38Y7.27
X127.63Y8.07
X127.64Y6.1
X128.5Y42.0
X129.23Y5.68
X129.24Y29.14
X130.87Y1.8
X132.03Y44.21
X132.14Y46.78
X132.9Y42.0
X133.02Y45.48
X136.05Y7.18
X136.28Y46.34
X136.3Y7.9
X136.36Y6.1
X136.46Y36.52
X137.19Y28.83
X138.02Y5.6
X138.55Y40.26
X139.65Y1.78
X144.36Y40.26
X144.61Y61.4
X145.22Y7.79
X145.3Y6.38
X145.43Y61.4
X146.05Y61.07
X146.44Y60.45
X146.45Y59.68
X146.69Y30.0
X146.75Y38.01
X147.09Y51.27
X147.09Y5.57
X147.1Y48.76
X148.19Y50.0
X148.71Y1.8
X149.25Y42.0
X152.89Y43.92
X153.03Y46.5
X153.88Y45.18
X154.3Y42.0
X159.25Y4.74
X159.8Y40.47
X160.68Y6.12
X160.96Y28.95
X161.16Y3.39
X165.02Y23.32
X165.62Y61.37
X166.14Y40.47
X166.44Y61.37
X166.98Y38.01
X167.06Y61.04
X167.45Y60.42
X167.46Y59.65
X168.05Y48.77
X168.14Y51.22
X169.22Y49.99
X169.27Y31.55
X169.7Y13.36
X169.77Y53.0
X170.27Y26.09
X170.5Y42.0
X173.59Y7.8
X173.9Y13.53
X174.08Y46.41
X174.08Y43.87
X174.81Y26.51
X175.09Y45.11
X176.7Y41.8
X178.24Y26.75
X179.12Y12.34
X181.16Y42.1
X182.04Y24.45
X183.72Y26.26
X184.562Y31.8
X184.7Y35.8
X185.16Y24.91
X185.2Y33.3
X185.562Y30.5
X185.6Y35.8
X185.662Y32.9
X186.2Y42.2
X186.3Y39.6
X186.63Y61.4
X187.45Y61.4
X187.7Y40.9
X187.93Y48.72
X188.07Y61.07
X188.07Y51.37
X188.46Y60.45
X188.47Y59.68
X189.15Y50.0
T2
X2.6Y105.0
X2.6Y5.0
X3.303Y106.697
X3.303Y103.303
X3.303Y6.697
X3.303Y3.303
X5.0Y107.4
X5.0Y102.6
X5.0Y7.4
X5.0Y2.6
X6.697Y106.697
X6.697Y103.303
X6.697Y6.697
X6.697Y3.303
X7.4Y105.0
X7.4Y5.0
X182.6Y105.0
X182.6Y5.0
X183.303Y106.697
X183.303Y103.303
X183.303Y6.697
X183.303Y3.303
X185.0Y107.4
X185.0Y102.6
X185.0Y7.4
X185.0Y2.6
X186.697Y106.697
X186.697Y103.303
X186.697Y6.697
X186.697Y3.303
X187.4Y105.0
X187.4Y5.0
T3
X4.68Y45.54
X5.95Y45.54
X7.22Y45.54
X12.74Y30.99
X12.74Y29.72
X12.74Y28.45
X23.46Y34.2
X23.46Y32.93
X23.46Y31.66
X24.96Y45.59
X26.23Y45.59
X27.5Y45.59
X45.42Y45.49
X46.69Y45.49
X47.96Y45.49
X67.04Y45.52
X68.31Y45.52
X69.58Y45.52
X88.01Y45.56
X89.28Y45.56
X90.55Y45.56
X108.49Y45.5
X109.76Y45.5
X111.03Y45.5
X129.45Y45.47
X130.72Y45.47
X131.99Y45.47
X150.23Y45.23
X151.5Y45.23
X152.77Y45.23
X171.43Y45.14
X172.7Y45.14
X173.97Y45.14
T4
X3.852Y12.19
X5.61Y30.82
X6.352Y12.19
X8.11Y30.82
X183.7Y40.9
X186.2Y40.9
T5
X38.68Y34.37
X38.68Y31.83
X38.68Y8.97
X38.68Y6.43
X41.22Y34.37
X41.22Y31.83
X41.22Y8.97
X41.22Y6.43
X43.76Y34.37
X43.76Y31.83
X43.76Y8.97
X43.76Y6.43
X46.3Y34.37
X46.3Y31.83
X46.3Y8.97
X46.3Y6.43
X48.84Y34.37
X48.84Y31.83
X48.84Y8.97
X48.84Y6.43
X51.38Y34.37
X51.38Y31.83
X51.38Y8.97
X51.38Y6.43
X53.92Y34.37
X53.92Y31.83
X53.92Y8.97
X53.92Y6.43
X56.46Y34.37
X56.46Y31.83
X56.46Y8.97
X56.46Y6.43
X59.0Y34.37
X59.0Y31.83
X59.0Y8.97
X59.0Y6.43
T6
X4.09Y23.58
X4.09Y21.04
X4.09Y18.5
X12.09Y3.35
X14.63Y3.35
X16.76Y9.39
X17.17Y3.35
X19.3Y9.39
X19.71Y3.35
X21.84Y9.39
X75.53Y34.05
X75.53Y31.51
X75.53Y28.97
X75.53Y26.43
X80.75Y34.03
X80.75Y31.49
X80.75Y28.95
X87.022Y103.43
X92.022Y103.43
X92.485Y18.535
X95.025Y18.535
X97.565Y18.535
X100.105Y18.535
X102.645Y18.535
X105.185Y18.535
X107.725Y18.535
X110.265Y18.535
X132.65Y19.45
X135.19Y19.45
X137.73Y19.45
X140.27Y19.45
X160.79Y4.66
X163.33Y4.66
X165.87Y4.66
X168.41Y4.66
X170.95Y4.66
X182.56Y34.6
X183.56Y24.61
X183.56Y22.07
X183.56Y19.53
X183.56Y16.99
X183.56Y14.45
X183.56Y11.91
X185.1Y34.6
X187.64Y34.6
T7
X4.73Y59.015
X7.27Y59.015
X9.81Y59.015
X12.35Y59.015
X24.94Y59.34
X27.48Y59.34
X30.02Y59.34
X32.56Y59.34
X45.41Y58.88
X47.95Y58.88
X50.49Y58.88
X53.03Y58.88
X67.04Y58.99
X69.58Y58.99
X72.12Y58.99
X74.66Y58.99
X87.91Y58.95
X90.45Y58.95
X92.99Y58.95
X95.53Y58.95
X108.46Y59.02
X111.0Y59.02
X113.54Y59.02
X116.08Y59.02
X129.4Y58.89
X131.94Y58.89
X134.48Y58.89
X137.02Y58.89
X150.32Y58.96
X152.86Y58.96
X155.4Y58.96
X157.94Y58.96
X171.39Y58.89
X173.93Y58.89
X176.47Y58.89
X179.01Y58.89
T8
X19.01Y59.94
X19.01Y57.4
X19.01Y54.86
X40.04Y60.03
X40.04Y57.49
X40.04Y54.95
X61.06Y60.05
X61.06Y57.51
X61.06Y54.97
X68.07Y8.49
X70.61Y8.49
X73.15Y8.49
X75.69Y8.49
X78.23Y8.49
X80.77Y8.49
X82.0Y60.02
X82.0Y57.48
X82.0Y54.94
X92.76Y5.355
X95.3Y5.355
X97.84Y5.355
X100.38Y5.355
X102.89Y59.97
X102.89Y57.43
X102.89Y54.89
X123.97Y59.96
X123.97Y57.42
X123.97Y54.88
X144.99Y59.95
X144.99Y57.41
X144.99Y54.87
X165.95Y59.94
X165.95Y57.4
X165.95Y54.86
X186.94Y59.91
X186.94Y57.37
X186.94Y54.83
T9
X67.56Y102.78
X72.64Y102.78
X107.93Y102.91
X113.01Y102.91
T10
X5.0Y105.0
X5.0Y5.0
X185.0Y105.0
X185.0Y5.0
T4
G00X8.11Y91.54
M15
G01X8.11Y90.54
M16
G05
G00X8.11Y78.04
M15
G01X8.11Y77.04
M16
G05
G00X11.51Y91.54
M15
G01X11.51Y90.54
M16
G05
G00X11.51Y78.04
M15
G01X11.51Y77.04
M16
G05
G00X28.17Y91.3
M15
G01X28.17Y90.3
M16
G05
G00X28.17Y77.8
M15
G01X28.17Y76.8
M16
G05
G00X31.57Y91.3
M15
G01X31.57Y90.3
M16
G05
G00X31.57Y77.8
M15
G01X31.57Y76.8
M16
G05
G00X48.83Y91.37
M15
G01X48.83Y90.37
M16
G05
G00X48.83Y77.87
M15
G01X48.83Y76.87
M16
G05
G00X52.23Y91.37
M15
G01X52.23Y90.37
M16
G05
G00X52.23Y77.87
M15
G01X52.23Y76.87
M16
G05
G00X70.37Y91.53
M15
G01X70.37Y90.53
M16
G05
G00X70.37Y78.03
M15
G01X70.37Y77.03
M16
G05
G00X73.77Y91.53
M15
G01X73.77Y90.53
M16
G05
G00X73.77Y78.03
M15
G01X73.77Y77.03
M16
G05
G00X91.11Y91.35
M15
G01X91.11Y90.35
M16
G05
G00X91.11Y77.85
M15
G01X91.11Y76.85
M16
G05
G00X94.51Y91.35
M15
G01X94.51Y90.35
M16
G05
G00X94.51Y77.85
M15
G01X94.51Y76.85
M16
G05
G00X111.84Y91.33
M15
G01X111.84Y90.33
M16
G05
G00X111.84Y77.83
M15
G01X111.84Y76.83
M16
G05
G00X115.24Y91.33
M15
G01X115.24Y90.33
M16
G05
G00X115.24Y77.83
M15
G01X115.24Y76.83
M16
G05
G00X132.89Y91.33
M15
G01X132.89Y90.33
M16
G05
G00X132.89Y77.83
M15
G01X132.89Y76.83
M16
G05
G00X136.29Y91.33
M15
G01X136.29Y90.33
M16
G05
G00X136.29Y77.83
M15
G01X136.29Y76.83
M16
G05
G00X153.63Y91.59
M15
G01X153.63Y90.59
M16
G05
G00X153.63Y78.09
M15
G01X153.63Y77.09
M16
G05
G00X157.03Y91.59
M15
G01X157.03Y90.59
M16
G05
G00X157.03Y78.09
M15
G01X157.03Y77.09
M16
G05
G00X174.96Y91.99
M15
G01X174.96Y90.99
M16
G05
G00X174.96Y78.49
M15
G01X174.96Y77.49
M16
G05
G00X178.36Y91.99
M15
G01X178.36Y90.99
M16
G05
G00X178.36Y78.49
M15
G01X178.36Y77.49
M16
G05
M30
