M48
; DRILL file KiCad 10.0.1 date 2026-04-21T13:19:49
; FORMAT={-:-/ absolute / metric / decimal}
; #@! TF.CreationDate,2026-04-21T13:19:49+02:00
; #@! TF.GenerationSoftware,Kicad,Pcbnew,10.0.1
; #@! TF.FileFunction,Plated,1,2,PTH
FMAT,2
METRIC
; #@! TA.AperFunction,Plated,PTH,ViaDrill
T1C0.300
; Post-machining
; #@! TA.AperFunction,Plated,PTH,ComponentDrill
T2C0.500
; #@! TA.AperFunction,Plated,PTH,ComponentDrill
T3C0.750
; #@! TA.AperFunction,Plated,PTH,ComponentDrill
T4C0.800
; #@! TA.AperFunction,Plated,PTH,ComponentDrill
T5C0.900
; #@! TA.AperFunction,Plated,PTH,ComponentDrill
T6C1.000
; #@! TA.AperFunction,Plated,PTH,ComponentDrill
T7C1.020
; #@! TA.AperFunction,Plated,PTH,ComponentDrill
T8C1.100
; #@! TA.AperFunction,Plated,PTH,ComponentDrill
T9C1.300
; #@! TA.AperFunction,Plated,PTH,ComponentDrill
T10C3.200
%
G90
G05
T1
X2.74Y20.74
X2.86Y21.68
X3.64Y10.98
X4.71Y9.63
X5.33Y21.68
X5.44Y20.71
X6.24Y10.83
X6.708Y24.975
X6.828Y27.615
X7.06Y21.61
X7.39Y46.79
X7.43Y44.26
X7.758Y26.325
X8.14Y20.59
X8.16Y29.51
X8.3Y32.0
X8.32Y45.68
X9.36Y30.57
X9.43Y9.14
X9.73Y3.23
X10.4Y34.55
X11.52Y28.3
X12.0Y16.04
X12.76Y27.46
X13.06Y18.54
X13.96Y28.17
X14.99Y34.6
X15.11Y14.98
X18.52Y61.36
X19.34Y61.36
X19.96Y61.03
X20.05Y7.525
X20.35Y60.41
X20.36Y59.64
X21.04Y48.79
X21.05Y7.325
X21.07Y51.18
X21.75Y6.125
X22.02Y50.02
X22.36Y31.71
X23.36Y30.76
X23.9Y26.27
X24.25Y42.0
X24.56Y31.56
X24.7Y8.8
X26.575Y10.05
X27.69Y44.26
X27.73Y46.83
X28.25Y42.0
X28.59Y45.6
X30.8Y5.35
X31.25Y23.32
X33.0Y28.77
X34.775Y4.575
X38.07Y2.93
X39.65Y61.4
X39.83Y24.52
X40.47Y61.4
X41.09Y61.07
X41.25Y29.175
X41.48Y60.45
X41.49Y59.68
X42.02Y51.21
X42.07Y48.76
X42.72Y9.6
X42.99Y23.49
X43.18Y50.01
X43.61Y2.4
X43.8Y10.2
X44.5Y42.0
X44.7Y9.85
X45.5Y15.81
X46.94Y25.29
X47.39Y13.92
X48.05Y44.22
X48.11Y46.78
X48.9Y42.0
X49.0Y45.51
X54.24Y23.24
X55.2Y29.825
X55.26Y35.09
X55.93Y19.69
X56.225Y23.625
X56.975Y29.85
X57.0Y35.7
X57.4Y12.78
X57.48Y18.46
X57.63Y34.87
X57.9Y24.475
X59.1Y35.65
X60.25Y7.0
X60.27Y6.2
X60.31Y34.39
X61.44Y61.42
X61.87Y13.77
X62.06Y61.09
X62.45Y60.47
X62.46Y59.7
X62.78Y9.45
X63.02Y51.23
X63.03Y48.75
X63.27Y24.18
X64.13Y50.09
X65.76Y24.27
X66.0Y42.0
X66.415Y8.685
X67.05Y21.575
X67.79Y10.06
; Post-machining back countersink angle 82deg
X68.1Y19.91
; Post-machining back countersink angle 82deg
X68.16Y18.48
X69.615Y9.76
X69.71Y44.25
X69.89Y46.73
X70.5Y42.0
X70.55Y45.5
X71.645Y9.65
X73.01Y18.48
X73.655Y9.98
X79.68Y12.4
; Post-machining back countersink angle 82deg
X79.78Y19.91
X79.98Y14.52
X81.6Y61.4
X82.42Y61.4
X83.04Y61.07
X83.43Y60.45
X83.44Y59.68
X84.07Y51.23
X84.11Y48.78
X85.17Y50.06
X87.0Y42.0
X89.31Y1.71
X90.6Y44.29
X90.81Y46.81
X91.56Y45.6
X91.8Y42.0
X92.17Y101.97
X92.38Y104.82
X93.03Y102.41
X93.2Y104.34
X93.51Y103.17
X96.7Y20.8
X96.9Y9.3
X102.6Y28.9
X102.62Y61.4
X103.44Y61.4
X104.06Y61.07
X104.45Y60.45
X104.46Y59.68
X105.09Y51.28
X105.1Y48.78
X105.4Y14.3
X106.15Y50.06
X106.2Y103.5
X106.88Y101.39
X107.5Y42.0
X108.22Y104.8
X108.97Y101.38
X109.76Y103.05
X111.1Y44.21
X111.21Y46.78
X111.27Y103.63
X112.0Y101.21
X112.06Y45.57
X112.2Y42.0
X113.5Y104.7
X114.33Y101.28
X114.74Y103.23
X117.9Y6.6
X122.73Y45.74
X123.6Y61.39
X124.42Y61.39
X124.6Y24.2
X125.04Y61.06
X125.43Y60.44
X125.44Y59.67
X126.06Y48.82
X126.1Y51.29
X127.12Y50.06
X128.5Y42.0
X128.6Y11.5
X132.03Y44.21
X132.14Y46.78
X132.9Y42.0
X133.02Y45.48
X144.61Y61.4
X145.43Y61.4
X146.05Y61.07
X146.44Y60.45
X146.45Y59.68
X147.09Y51.27
X147.1Y48.76
X148.19Y50.0
X148.7Y23.1
X149.25Y42.0
X152.89Y43.92
X153.03Y46.5
X153.88Y45.18
X154.3Y42.0
X154.5Y13.2
X157.6Y6.6
X164.3Y25.7
X165.62Y61.37
X166.44Y61.37
X167.06Y61.04
X167.45Y60.42
X167.46Y59.65
X168.05Y48.77
X168.14Y51.22
X169.22Y49.99
X170.5Y42.0
X173.7Y15.6
X174.08Y46.41
X174.08Y43.87
X175.09Y45.11
X176.7Y41.8
X186.63Y61.4
X186.8Y36.9
X187.45Y61.4
X187.93Y48.72
X188.07Y61.07
X188.07Y51.37
X188.46Y60.45
X188.47Y59.68
X189.15Y50.0
T2
X2.6Y105.0
X2.6Y5.0
X3.303Y106.697
X3.303Y103.303
X3.303Y6.697
X3.303Y3.303
X5.0Y107.4
X5.0Y102.6
X5.0Y7.4
X5.0Y2.6
X6.697Y106.697
X6.697Y103.303
X6.697Y6.697
X6.697Y3.303
X7.4Y105.0
X7.4Y5.0
X182.6Y105.0
X182.6Y5.0
X183.303Y106.697
X183.303Y103.303
X183.303Y6.697
X183.303Y3.303
X185.0Y107.4
X185.0Y102.6
X185.0Y7.4
X185.0Y2.6
X186.697Y106.697
X186.697Y103.303
X186.697Y6.697
X186.697Y3.303
X187.4Y105.0
X187.4Y5.0
T3
X4.68Y45.54
X5.95Y45.54
X7.22Y45.54
X12.74Y30.99
X12.74Y29.72
X12.74Y28.45
X23.46Y34.2
X23.46Y32.93
X23.46Y31.66
X24.96Y45.59
X26.23Y45.59
X27.5Y45.59
X45.42Y45.49
X46.69Y45.49
X47.96Y45.49
X67.04Y45.52
X68.31Y45.52
X69.58Y45.52
X88.01Y45.56
X89.28Y45.56
X90.55Y45.56
X108.49Y45.5
X109.76Y45.5
X111.03Y45.5
X129.45Y45.47
X130.72Y45.47
X131.99Y45.47
X150.23Y45.23
X151.5Y45.23
X152.77Y45.23
X171.43Y45.14
X172.7Y45.14
X173.97Y45.14
T4
X4.91Y13.48
X4.91Y10.98
X5.61Y30.82
X8.11Y30.82
T5
X38.68Y34.37
X38.68Y31.83
X38.68Y8.97
X38.68Y6.43
X41.22Y34.37
X41.22Y31.83
X41.22Y8.97
X41.22Y6.43
X43.76Y34.37
X43.76Y31.83
X43.76Y8.97
X43.76Y6.43
X46.3Y34.37
X46.3Y31.83
X46.3Y8.97
X46.3Y6.43
X48.84Y34.37
X48.84Y31.83
X48.84Y8.97
X48.84Y6.43
X51.38Y34.37
X51.38Y31.83
X51.38Y8.97
X51.38Y6.43
X53.92Y34.37
X53.92Y31.83
X53.92Y8.97
X53.92Y6.43
X56.46Y34.37
X56.46Y31.83
X56.46Y8.97
X56.46Y6.43
X59.0Y34.37
X59.0Y31.83
X59.0Y8.97
X59.0Y6.43
T6
X4.09Y23.58
X4.09Y21.04
X4.09Y18.5
X54.125Y39.205
X56.665Y39.205
X59.205Y39.205
X87.022Y103.43
X92.022Y103.43
T7
X4.73Y59.015
X7.27Y59.015
X9.81Y59.015
X12.35Y59.015
X24.94Y59.34
X27.48Y59.34
X30.02Y59.34
X32.56Y59.34
X45.41Y58.88
X47.95Y58.88
X50.49Y58.88
X53.03Y58.88
X67.04Y58.99
X69.58Y58.99
X72.12Y58.99
X74.66Y58.99
X87.91Y58.95
X90.45Y58.95
X92.99Y58.95
X95.53Y58.95
X108.46Y59.02
X111.0Y59.02
X113.54Y59.02
X116.08Y59.02
X129.4Y58.89
X131.94Y58.89
X134.48Y58.89
X137.02Y58.89
X150.32Y58.96
X152.86Y58.96
X155.4Y58.96
X157.94Y58.96
X171.39Y58.89
X173.93Y58.89
X176.47Y58.89
X179.01Y58.89
T8
X12.58Y5.975
X15.12Y5.975
X17.66Y5.975
X19.01Y59.94
X19.01Y57.4
X19.01Y54.86
X20.2Y5.975
X40.04Y60.03
X40.04Y57.49
X40.04Y54.95
X61.06Y60.05
X61.06Y57.51
X61.06Y54.97
X68.07Y8.49
X70.61Y8.49
X73.15Y8.49
X75.69Y8.49
X78.23Y8.49
X80.77Y8.49
X82.0Y60.02
X82.0Y57.48
X82.0Y54.94
X102.89Y59.97
X102.89Y57.43
X102.89Y54.89
X123.97Y59.96
X123.97Y57.42
X123.97Y54.88
X144.99Y59.95
X144.99Y57.41
X144.99Y54.87
X165.95Y59.94
X165.95Y57.4
X165.95Y54.86
X186.94Y59.91
X186.94Y57.37
X186.94Y54.83
T9
X67.56Y102.78
X72.64Y102.78
X107.93Y102.91
X113.01Y102.91
T10
X5.0Y105.0
X5.0Y5.0
X185.0Y105.0
X185.0Y5.0
T4
G00X8.11Y91.54
M15
G01X8.11Y90.54
M16
G05
G00X8.11Y78.04
M15
G01X8.11Y77.04
M16
G05
G00X11.51Y91.54
M15
G01X11.51Y90.54
M16
G05
G00X11.51Y78.04
M15
G01X11.51Y77.04
M16
G05
G00X28.17Y91.3
M15
G01X28.17Y90.3
M16
G05
G00X28.17Y77.8
M15
G01X28.17Y76.8
M16
G05
G00X31.57Y91.3
M15
G01X31.57Y90.3
M16
G05
G00X31.57Y77.8
M15
G01X31.57Y76.8
M16
G05
G00X48.83Y91.37
M15
G01X48.83Y90.37
M16
G05
G00X48.83Y77.87
M15
G01X48.83Y76.87
M16
G05
G00X52.23Y91.37
M15
G01X52.23Y90.37
M16
G05
G00X52.23Y77.87
M15
G01X52.23Y76.87
M16
G05
G00X70.37Y91.53
M15
G01X70.37Y90.53
M16
G05
G00X70.37Y78.03
M15
G01X70.37Y77.03
M16
G05
G00X73.77Y91.53
M15
G01X73.77Y90.53
M16
G05
G00X73.77Y78.03
M15
G01X73.77Y77.03
M16
G05
G00X91.11Y91.35
M15
G01X91.11Y90.35
M16
G05
G00X91.11Y77.85
M15
G01X91.11Y76.85
M16
G05
G00X94.51Y91.35
M15
G01X94.51Y90.35
M16
G05
G00X94.51Y77.85
M15
G01X94.51Y76.85
M16
G05
G00X111.84Y91.33
M15
G01X111.84Y90.33
M16
G05
G00X111.84Y77.83
M15
G01X111.84Y76.83
M16
G05
G00X115.24Y91.33
M15
G01X115.24Y90.33
M16
G05
G00X115.24Y77.83
M15
G01X115.24Y76.83
M16
G05
G00X132.89Y91.33
M15
G01X132.89Y90.33
M16
G05
G00X132.89Y77.83
M15
G01X132.89Y76.83
M16
G05
G00X136.29Y91.33
M15
G01X136.29Y90.33
M16
G05
G00X136.29Y77.83
M15
G01X136.29Y76.83
M16
G05
G00X153.63Y91.59
M15
G01X153.63Y90.59
M16
G05
G00X153.63Y78.09
M15
G01X153.63Y77.09
M16
G05
G00X157.03Y91.59
M15
G01X157.03Y90.59
M16
G05
G00X157.03Y78.09
M15
G01X157.03Y77.09
M16
G05
G00X174.96Y91.99
M15
G01X174.96Y90.99
M16
G05
G00X174.96Y78.49
M15
G01X174.96Y77.49
M16
G05
G00X178.36Y91.99
M15
G01X178.36Y90.99
M16
G05
G00X178.36Y78.49
M15
G01X178.36Y77.49
M16
G05
M30
